<?xml version="1.0" encoding="UTF-8" standalone="no"?>
<!-- Created with Inkscape (http://www.inkscape.org/) -->

<svg
   width="48"
   height="48"
   viewBox="0 0 12.7 12.7"
   version="1.1"
   id="svg1"
   inkscape:version="1.4 (e7c3feb100, 2024-10-09)"
   sodipodi:docname="icon.svg"
   xmlns:inkscape="http://www.inkscape.org/namespaces/inkscape"
   xmlns:sodipodi="http://sodipodi.sourceforge.net/DTD/sodipodi-0.dtd"
   xmlns="http://www.w3.org/2000/svg"
   xmlns:svg="http://www.w3.org/2000/svg">
  <sodipodi:namedview
     id="namedview1"
     pagecolor="#ffffff"
     bordercolor="#000000"
     borderopacity="0.25"
     inkscape:showpageshadow="2"
     inkscape:pageopacity="0.0"
     inkscape:pagecheckerboard="0"
     inkscape:deskcolor="#d1d1d1"
     inkscape:document-units="mm"
     inkscape:zoom="10.494572"
     inkscape:cx="25.108217"
     inkscape:cy="28.443274"
     inkscape:window-width="1536"
     inkscape:window-height="888"
     inkscape:window-x="0"
     inkscape:window-y="0"
     inkscape:window-maximized="1"
     inkscape:current-layer="layer1" />
  <defs
     id="defs1" />
  <g
     inkscape:label="Layer 1"
     inkscape:groupmode="layer"
     id="layer1">
    <path
       style="fill:#800000;stroke-width:1.5478;stroke-dasharray:6.19119, 1.5478"
       id="path1"
       d="m 3.0847738,1.2923972 c -0.00709,0.01778 -0.014178,0.03556 -0.021268,0.05334 -0.021452,0.025209 -0.050769,0.045443 -0.064358,0.075627 -0.033688,0.07484 -0.032283,0.2258248 -0.037029,0.2981407 -0.00889,0.1352944 -0.01951,0.2704689 -0.028707,0.405742 -0.031021,0.3739932 0.00238,0.7480521 0.017337,1.1215937 0.012784,0.3192654 0.00703,0.337481 -0.00172,0.6529028 -0.01925,0.2874474 -0.014565,0.2881371 -0.050588,0.5642458 -0.023211,0.1778957 -0.061879,0.2807199 -0.018363,0.4603348 0.00981,0.040476 0.1492881,0.3548969 0.1745223,0.4124678 0,0 0.1715904,0.088522 0.1715904,0.088522 v 0 C 3.2584169,5.3934443 3.4184528,5.2385577 3.4320694,5.2089204 3.4924598,5.0774769 3.4618289,4.881409 3.4559364,4.7504288 3.4464484,4.5396466 3.440474,4.3583777 3.4328851,4.1467387 3.4302693,3.9307891 3.4251152,3.7079374 3.4321891,3.491974 c 0.00341,-0.1032211 0.01246,-0.2061816 0.017547,-0.3093333 0.012646,-0.2566638 0.015661,-0.5138734 0.038142,-0.7699989 0.016196,-0.2261577 0.012413,-0.1872606 0.031618,-0.4039395 0.00687,-0.077504 0.026696,-0.22619 0.013775,-0.3080228 C 3.5221278,1.6301371 3.4777746,1.5669776 3.4792045,1.493361 Z" />
    <path
       style="fill:#800000;stroke-width:1.5478;stroke-dasharray:6.19119, 1.5478"
       id="path2"
       d="m 1.6016575,3.7592006 c 0.021301,-6.8e-4 0.042756,6.101e-4 0.063902,-0.00204 0.1367263,-0.017159 0.2738244,-0.047923 0.4093059,-0.07253 0.231415,-0.042029 0.2093843,-0.037029 0.455231,-0.075957 0.5363158,-0.081653 1.0783324,-0.1031793 1.619483,-0.1266299 0.2064946,-0.020511 0.4140964,-0.023203 0.6210849,-0.034633 0.042853,-0.00237 0.0869,8.682e-4 0.1283403,-0.010293 0.021775,-0.00586 0.060556,-0.017251 0.055176,-0.039152 -0.012383,-0.050415 -0.063395,-0.082227 -0.095092,-0.1233409 0,0 -0.3452674,-0.2240288 -0.3452674,-0.2240288 v 0 C 4.4543658,3.0256493 4.3978944,2.9918408 4.3354555,2.9757623 4.2742231,2.9599933 4.2064745,2.994859 4.1533516,3.0154772 3.9967139,3.0762701 3.839453,3.1280175 3.6698265,3.1403814 3.1653987,3.2184244 2.655052,3.2537668 2.151939,3.3420273 1.8350361,3.3824325 1.5180653,3.4233625 1.2034776,3.4784517 Z" />
    <path
       style="fill:#008000;stroke-width:1.9561;stroke-dasharray:7.82437, 1.9561"
       id="path3"
       d="M 7.5957356,3.739198 C 7.7520547,3.778351 7.9024298,3.787015 8.0620778,3.760505 8.1198208,3.750925 8.1761817,3.733902 8.2339909,3.724703 8.3052059,3.713379 8.3771811,3.707548 8.4487757,3.698968 8.8991047,3.639184 9.3544494,3.660246 9.8066383,3.630358 9.9077795,3.623668 10.008481,3.611501 10.109402,3.602078 c 0.556191,-0.050397 1.11237,-0.096813 1.670317,-0.1232727 0.174542,-0.017565 0.206002,-0.013772 0.229113,-0.1770401 0,0 -0.49918,-0.3444122 -0.49918,-0.3444122 v 0 C 11.342225,2.9242239 11.176557,2.873719 11.008841,2.9359494 10.519668,3.0743158 10.016993,3.136521 9.5108606,3.1754093 8.9795953,3.2218827 8.4495956,3.282388 7.9176844,3.3223881 c -0.07262,0.00811 -0.1450567,0.018152 -0.2178655,0.024381 -0.1441835,0.012322 -0.3084092,0.00171 -0.4501431,0.041471 -0.017136,0.0048 -0.031131,0.017253 -0.046693,0.025875 -0.00852,0.00174 -0.017037,0.00349 -0.02555,0.00523 z" />
    <path
       style="fill:#000080;stroke-width:1.92569;stroke-dasharray:7.70274, 1.92569"
       id="path4"
       d="m 4.921184,6.7628503 c -0.030638,0.00257 -0.064061,-0.0053 -0.091921,0.00772 C 4.7168327,6.8231169 4.67922,6.9254378 4.6169239,7.0249187 4.5705704,7.0989381 4.5235893,7.1725626 4.4776962,7.2468679 4.2173095,7.6684558 4.4005812,7.3921127 4.0943549,7.8316608 3.9179936,8.0690127 3.731677,8.2987811 3.554103,8.5352001 3.4502086,8.673524 3.354115,8.8177308 3.246962,8.9535456 3.0875651,9.1555775 2.7201917,9.5741282 2.5399811,9.7566872 2.4205362,9.8776899 2.2917853,9.9891341 2.1676871,10.105355 c -0.4185545,0.340366 -0.2766768,0.239292 -0.696724,0.528777 -0.096128,0.06625 -0.2069641,0.114239 -0.2901668,0.196132 -0.067288,0.06623 -0.095538,0.163334 -0.1519561,0.239039 -0.0448258,0.06015 -0.10048233,0.111403 -0.15072402,0.167104 0,0 0.0572131,0.05158 0.0572131,0.05158 v 0 C 1.0154428,11.270515 1.4924625,11.170034 1.5410688,11.14266 1.6402133,11.086822 1.7071274,10.986819 1.7849807,10.903831 1.8752,10.807659 2.2738051,10.337187 2.3442421,10.254527 3.2454658,9.1840578 2.0730457,10.572116 3.0240377,9.4614713 3.1395946,9.3265143 3.2501549,9.1872961 3.3670528,9.0534992 3.4808259,8.9232792 3.6024593,8.800057 3.71592,8.6695655 3.8491239,8.5163703 4.1444888,8.1475386 4.2771508,7.9831229 4.5088526,7.7181006 4.5058916,7.7047873 4.7553558,7.4794194 4.8202712,7.4207738 4.8881099,7.3654017 4.9562755,7.3105682 5.0665791,7.2218402 5.192055,7.1642915 5.2004557,7.0084261 Z" />
    <path
       style="fill:#000080;stroke-width:1.92569;stroke-dasharray:7.70274, 1.92569"
       id="path5"
       d="m 2.1252905,7.2778872 c 0.00234,0.00941 0.0025,0.019665 0.00703,0.028246 0.030066,0.056843 0.1169457,0.1689829 0.1431212,0.2071612 0.041416,0.060404 0.081714,0.1215845 0.1210067,0.1833924 0.064867,0.1020369 0.2451796,0.4004653 0.3016717,0.4935398 0.3395848,0.5635535 0.5868982,1.1756814 0.8376385,1.7821508 0.0936,0.1385578 0.096127,0.3162538 0.1732325,0.4612728 0.069031,0.129828 0.258994,0.366065 0.3503573,0.484294 0,0 0.1612136,0.106375 0.1612136,0.106375 v 0 c 0.026481,-0.07006 0.065115,-0.145297 0.040851,-0.225065 C 4.2059339,10.616868 4.0540817,10.47328 4.0103242,10.285423 3.7154558,9.681374 3.4166357,9.0792664 3.1314107,8.4705781 2.6866353,7.6083753 3.2981148,8.7882451 2.8882677,8.0137757 2.7857916,7.8201306 2.7037614,7.6458197 2.5172886,7.5152476 Z" />
    <path
       style="fill:#d45500;stroke-width:1.5478;stroke-dasharray:6.19119, 1.5478"
       id="path6"
       d="m 7.3793317,10.020541 c 0.070058,-0.0014 0.094863,0.0014 0.1669157,-0.01575 0.049987,-0.011856 0.2408919,-0.074797 0.2778045,-0.087436 0.061949,-0.02121 0.1234106,-0.043814 0.1851148,-0.065721 0.073792,-0.025046 0.1475873,-0.050095 0.221381,-0.075141 0.3847348,-0.1368293 0.7440264,-0.3314065 1.1223901,-0.483431 0.2078637,-0.083518 0.4737767,-0.179051 0.6841342,-0.2560839 0.111257,-0.043415 0.222143,-0.08779 0.333769,-0.130245 0.276417,-0.1051291 0.354918,-0.1338504 0.632411,-0.2200022 0.09128,-0.028339 0.183088,-0.054979 0.275008,-0.081173 0.0783,-0.022315 0.160188,-0.033745 0.235642,-0.064345 0.0503,-0.020398 0.09175,-0.058019 0.137616,-0.087029 -0.01526,-0.1737448 -0.01366,-0.095239 -0.01043,-0.2353331 0,0 -0.05183,-0.033867 -0.05183,-0.033867 v 0 c -0.236709,-0.012614 -0.102706,-0.00188 -0.40142,-0.038831 -0.0606,0.01847 -0.123932,0.029608 -0.181791,0.055404 -0.06213,0.027699 -0.116198,0.070848 -0.175636,0.1039392 -0.07302,0.040648 -0.147281,0.079043 -0.221618,0.1172256 C 10.3674,8.5467116 10.302376,8.5771644 10.045399,8.6889516 9.9381035,8.7356256 9.8298295,8.7800206 9.7220455,8.8255556 9.4701768,8.9303546 9.3127107,8.9991034 9.0553288,9.0929784 8.651004,9.2404463 8.2325483,9.3452885 7.8338845,9.509 7.5884068,9.6053024 7.6729979,9.5746933 7.4398393,9.6568906 7.3474083,9.6894766 7.1938468,9.7269496 7.111981,9.7856224 c -0.010897,0.0078 -0.017819,0.020001 -0.026729,0.030001 z" />
    <path
       style="fill:#d45500;stroke-width:1.5478;stroke-dasharray:6.19119, 1.5478"
       id="path7"
       d="m 8.5401334,7.8674175 c 0.00496,-0.00984 0.00625,-0.022752 0.014997,-0.029515 0.062323,-0.048329 0.161436,-0.00143 0.2365107,-0.011578 0.022588,-0.00306 0.041316,-0.019321 0.062424,-0.027921 C 8.10053,7.3361901 8.4348447,7.4072621 8.207678,7.8318915 c -0.01326,0.017937 -0.032016,0.032901 -0.039782,0.053809 -0.00616,0.0165 -0.014501,0.043111 1.847e-4,0.052805 0.089157,0.058831 0.5106258,0.4791711 0.7541508,0.3755626 0.076154,-0.032397 0.093331,-0.069402 0.1447567,-0.1316773 0.015981,-0.031026 0.037512,-0.059778 0.047942,-0.093081 0.036234,-0.115636 0.00515,-0.2352994 -0.077523,-0.3229059 -0.087402,-0.0926 -0.1649102,-0.1208985 -0.2757597,-0.1787638 0,0 -0.1104957,-0.043097 -0.1104957,-0.043097 v 0 c -0.023268,-0.00418 -0.054714,-0.016957 -0.075961,0.00539 -0.013959,0.014689 -0.035683,0.1037984 -0.038633,0.1117788 -0.00946,0.025517 -0.020051,0.050751 -0.033128,0.074619 -0.013849,0.02528 -0.031584,0.048229 -0.047372,0.072345 -0.056571,0.046056 -0.062911,0.06493 -0.1372556,0.073923 -0.019123,0.00229 -0.07336,-0.016741 -0.05748,-0.00584 C 8.4423373,8.0010501 8.633495,8.1098835 8.8195809,8.226446 8.7991529,8.210696 8.7754069,8.198501 8.7583049,8.179194 8.7366729,8.154787 8.7227779,8.1245 8.7050149,8.097152 8.7024449,8.068375 8.6942079,8.039557 8.6972049,8.01082 c 0.00772,-0.073262 0.058969,-0.1412056 0.1188756,-0.1807205 0.00698,-0.00461 0.015999,-0.00486 0.024003,-0.00731 -0.1709921,-0.1073721 -0.341987,-0.214747 -0.5129819,-0.3221217 0.035894,0.029092 1.8e-6,-0.00825 0.00588,0.042752 0.00901,0.078031 0.099527,0.142676 -0.0079,0.1922547 z" />
    <path
       style="fill:#d45500;stroke-width:1.5478;stroke-dasharray:6.19119, 1.5478"
       id="path8"
       d="m 9.7823725,9.8643043 c -0.110726,0.015848 -0.184102,0.1437517 -0.235228,0.2321617 -0.02554,0.06374 -0.052417,0.133552 -0.047399,0.204017 0.017249,0.242148 0.5417475,0.378977 0.5811655,0.399409 0.01957,0.01015 0.04248,-0.01182 0.06372,-0.01774 0.116416,-0.07161 0.22713,-0.182679 0.217475,-0.330173 -0.0021,-0.03172 -0.01267,-0.06231 -0.01902,-0.09346 -0.09351,-0.135856 -0.04171,-0.0706 -0.1561,-0.195227 0,0 -0.2460745,-0.11535 -0.2460745,-0.11535 v 0 c -0.0597,0.038171 -0.03294,0.015462 -0.08031,0.068127 -0.02114,0.136359 -0.06317,0.278349 -0.219588,0.302896 -0.2288872,-0.05951 -0.1334568,-0.04028 0.4280305,0.286741 0.01593,0.0093 -0.02727,-0.02565 -0.03633,-0.04171 -0.033601,-0.0596 -0.01583,-0.121326 0.0085,-0.179925 0.05772,-0.08416 0.149035,-0.178287 0.254308,-0.109374 z" />
  </g>
</svg>
